Coordinates
version=1
nRows=4
nColumns=63
inDegrees=yes

Units are S.I. units (second, meters, Newtons, ...)
If the header above contains a line with 'inDegrees', this indicates whether rotational values are in degrees (yes) or radians (no).

endheader
time	pelvis_tilt	pelvis_list	pelvis_rotation	pelvis_tx	pelvis_ty	pelvis_tz	hip_flexion_r	hip_adduction_r	hip_rotation_r	knee_angle_r	knee_angle_r_beta	ankle_angle_r	subtalar_angle_r	mtp_angle_r	hip_flexion_l	hip_adduction_l	hip_rotation_l	knee_angle_l	knee_angle_l_beta	ankle_angle_l	subtalar_angle_l	mtp_angle_l	L5_S1_Flex_Ext	L5_S1_Lat_Bending	L5_S1_axial_rotation	L4_L5_Flex_Ext	L4_L5_Lat_Bending	L4_L5_axial_rotation	L3_L4_Flex_Ext	L3_L4_Lat_Bending	L3_L4_axial_rotation	L2_L3_Flex_Ext	L2_L3_Lat_Bending	L2_L3_axial_rotation	L1_L2_Flex_Ext	L1_L2_Lat_Bending	L1_L2_axial_rotation	L1_T12_Flex_Ext	L1_T12_Lat_Bending	L1_T12_axial_rotation	Abs_r3	Abs_r2	Abs_r1	Abs_t1	Abs_t2	neck_flexion	neck_bending	neck_rotation	arm_flex_r	arm_add_r	arm_rot_r	elbow_flex_r	pro_sup_r	wrist_flex_r	wrist_dev_r	arm_flex_l	arm_add_l	arm_rot_l	elbow_flex_l	pro_sup_l	wrist_flex_l	wrist_dev_l
      5.06666667	      4.65211009	     -0.85938321	    177.90521178	      2.34554705	      0.89449011	      0.72947756	     11.19245589	     -2.71739709	    -12.53945071	     21.03178979	      0.36707398	     23.26537690	     -1.20514337	      0.00000000	      5.97757464	     -0.93896907	    -12.38372061	     13.43736202	      0.23452621	     18.92237373	      1.30533347	      0.00000000	      0.00353505	     -0.17435453	     -0.25602261	      0.00656494	     -0.23189153	     -0.27202403	      0.00580773	     -0.42392562	     -0.27202403	      0.00404021	     -0.42392562	     -0.22401979	      0.00328265	     -0.35554377	     -0.20801837	      0.00201993	     -0.27007517	     -0.19201696	      0.02525051	     -1.97233337	     -1.42392096	      0.00000000	      0.00000000	      0.00000000	      0.00000000	      0.00000000	    -14.89606030	     -1.42442100	     -2.36237050	     24.70006876	     56.80299517	      0.00000000	      5.00000024	     -8.12709560	    -12.08120551	     58.74348849	     18.33685002	     53.26108907	      0.00000000	      5.00000024
      5.10000000	      4.67412192	     -0.71707184	    178.07578841	      2.34556977	      0.89430612	      0.72949522	     11.25281375	     -2.60541765	    -12.70409857	     21.15909373	      0.36929585	     23.18980849	     -1.33681246	      0.00000000	      5.99749326	     -1.06634245	    -12.09515620	     13.37807494	      0.23349146	     18.78179288	      1.09333260	      0.00000000	      0.00300166	     -0.15896366	     -0.28561215	      0.00557438	     -0.21142167	     -0.30346291	      0.00493143	     -0.38650424	     -0.30346291	      0.00343060	     -0.38650424	     -0.24991063	      0.00278734	     -0.32415870	     -0.23205987	      0.00171515	     -0.24623471	     -0.21420911	      0.02144056	     -1.79822871	     -1.58848909	      0.00000000	      0.00000000	      0.00000000	      0.00000000	      0.00000000	    -14.92254474	     -1.65397641	     -2.81225847	     24.80493683	     56.68885029	      0.00000000	      5.00000024	     -8.16255898	    -12.13778095	     58.86337853	     18.52158092	     53.32281051	      0.00000000	      5.00000024
      5.13333333	      4.67406667	     -0.69843738	    178.10315908	      2.34555899	      0.89414132	      0.72942334	     11.34415067	     -2.62213695	    -12.64162753	     21.33395274	      0.37234772	     23.20521137	     -1.37933251	      0.00000000	      6.08778850	     -1.08684549	    -12.08415215	     13.51492171	      0.23587988	     18.81997871	      0.93261272	      0.00000000	      0.00132443	     -0.15978514	     -0.29526841	      0.00245960	     -0.21251423	     -0.31372269	      0.00217591	     -0.38850158	     -0.31372269	      0.00151369	     -0.38850158	     -0.25835986	      0.00122987	     -0.32583385	     -0.23990558	      0.00075678	     -0.24750718	     -0.22145131	      0.00946028	     -1.80752144	     -1.64219432	      0.00000000	      0.00000000	      0.00000000	      0.00000000	      0.00000000	    -14.92855499	     -1.99129232	     -3.08078054	     24.89457277	     56.55170601	      0.00000000	      5.00000024	     -8.21636347	    -12.17437929	     58.88856172	     18.60012513	     53.27416481	      0.00000000	      5.00000024
      5.16666667	      4.71226474	     -0.64419728	    177.99764871	      2.34567542	      0.89397104	      0.72925692	     11.51908529	     -2.46218715	    -11.92035941	     21.52136631	      0.37561870	     23.03587252	     -2.24981183	      0.00000000	      6.26941714	     -1.04755041	    -11.32357858	     13.67668319	      0.23870315	     18.69147617	     -0.47955509	      0.00000000	      0.00249139	     -0.14978496	     -0.26841261	      0.00462676	     -0.19921400	     -0.28518840	      0.00409310	     -0.36418716	     -0.28518840	      0.00284741	     -0.36418716	     -0.23486103	      0.00231350	     -0.30544149	     -0.21808525	      0.00142358	     -0.23201691	     -0.20130946	      0.01779574	     -1.69439744	     -1.49283042	      0.00000000	      0.00000000	      0.00000000	      0.00000000	      0.00000000	    -15.18126211	     -0.62789535	    -11.96159480	     25.58024245	     54.76607219	      0.00000000	      5.00000022	     -8.04745320	    -12.15602965	     59.68355725	     18.44627191	     54.06593400	      0.00000000	      5.00000022
